<mxfile host="Electron" modified="2023-09-08T23:03:35.844Z" agent="Mozilla/5.0 (Windows NT 10.0; Win64; x64) AppleWebKit/537.36 (KHTML, like Gecko) draw.io/21.6.8 Chrome/114.0.5735.289 Electron/25.5.0 Safari/537.36" etag="goLfpF1VbQtwEuGpsNy4" version="21.6.8" type="device">
  <diagram name="Page-1" id="lfNd_O36Ba1Q0beKgkFp">
    <mxGraphModel dx="1418" dy="2820" grid="1" gridSize="10" guides="1" tooltips="1" connect="1" arrows="1" fold="1" page="1" pageScale="1" pageWidth="2000" pageHeight="2000" math="0" shadow="0">
      <root>
        <mxCell id="0" />
        <mxCell id="1" parent="0" />
        <mxCell id="hrnvlZONvZFOwvji5j6H-1" value="&lt;font style=&quot;font-size: 30px;&quot;&gt;THREAD 1&lt;/font&gt;" style="rounded=0;whiteSpace=wrap;html=1;" parent="1" vertex="1">
          <mxGeometry x="440" y="270" width="170" height="110" as="geometry" />
        </mxCell>
        <mxCell id="hrnvlZONvZFOwvji5j6H-2" value="SUPERSTEP 1" style="rounded=0;whiteSpace=wrap;html=1;fontSize=30;" parent="1" vertex="1">
          <mxGeometry x="60" y="180" width="220" height="60" as="geometry" />
        </mxCell>
        <mxCell id="hrnvlZONvZFOwvji5j6H-3" value="STEAL" style="rounded=0;whiteSpace=wrap;html=1;fontSize=30;" parent="1" vertex="1">
          <mxGeometry x="290" y="180" width="120" height="60" as="geometry" />
        </mxCell>
        <mxCell id="hrnvlZONvZFOwvji5j6H-4" value="SUPERSTEP 2" style="rounded=0;whiteSpace=wrap;html=1;fontSize=30;" parent="1" vertex="1">
          <mxGeometry x="60" y="250" width="220" height="60" as="geometry" />
        </mxCell>
        <mxCell id="hrnvlZONvZFOwvji5j6H-5" value="TASK 2" style="rounded=0;whiteSpace=wrap;html=1;fontSize=30;" parent="1" vertex="1">
          <mxGeometry x="290" y="250" width="120" height="60" as="geometry" />
        </mxCell>
        <mxCell id="hrnvlZONvZFOwvji5j6H-6" value="SUPERSTEP 3" style="rounded=0;whiteSpace=wrap;html=1;fontSize=30;" parent="1" vertex="1">
          <mxGeometry x="60" y="320" width="220" height="60" as="geometry" />
        </mxCell>
        <mxCell id="hrnvlZONvZFOwvji5j6H-7" value="TASK 3" style="rounded=0;whiteSpace=wrap;html=1;fontSize=30;" parent="1" vertex="1">
          <mxGeometry x="290" y="320" width="120" height="60" as="geometry" />
        </mxCell>
        <mxCell id="hrnvlZONvZFOwvji5j6H-8" value="SUPERSTEP 4" style="rounded=0;whiteSpace=wrap;html=1;fontSize=30;" parent="1" vertex="1">
          <mxGeometry x="60" y="390" width="220" height="60" as="geometry" />
        </mxCell>
        <mxCell id="hrnvlZONvZFOwvji5j6H-9" value="TASK 4" style="rounded=0;whiteSpace=wrap;html=1;fontSize=30;" parent="1" vertex="1">
          <mxGeometry x="290" y="390" width="120" height="60" as="geometry" />
        </mxCell>
        <mxCell id="hrnvlZONvZFOwvji5j6H-11" value="" style="shape=flexArrow;endArrow=classic;html=1;rounded=0;width=16;endSize=5.56;" parent="1" edge="1">
          <mxGeometry width="50" height="50" relative="1" as="geometry">
            <mxPoint x="620" y="580" as="sourcePoint" />
            <mxPoint x="599.9985714285714" y="410" as="targetPoint" />
          </mxGeometry>
        </mxCell>
        <mxCell id="hrnvlZONvZFOwvji5j6H-12" value="" style="shape=flexArrow;endArrow=classic;html=1;rounded=0;width=16;endSize=5.56;" parent="1" edge="1">
          <mxGeometry width="50" height="50" relative="1" as="geometry">
            <mxPoint x="870" y="340" as="sourcePoint" />
            <mxPoint x="640" y="340" as="targetPoint" />
          </mxGeometry>
        </mxCell>
        <mxCell id="hrnvlZONvZFOwvji5j6H-13" value="" style="shape=flexArrow;endArrow=classic;html=1;rounded=0;width=16;endSize=5.56;" parent="1" edge="1">
          <mxGeometry width="50" height="50" relative="1" as="geometry">
            <mxPoint x="540" y="50" as="sourcePoint" />
            <mxPoint x="510" y="209.5" as="targetPoint" />
          </mxGeometry>
        </mxCell>
        <mxCell id="hrnvlZONvZFOwvji5j6H-14" value="SUPERSTEP 1" style="rounded=0;whiteSpace=wrap;html=1;fontSize=30;" parent="1" vertex="1">
          <mxGeometry x="470" y="790" width="220" height="60" as="geometry" />
        </mxCell>
        <mxCell id="hrnvlZONvZFOwvji5j6H-15" value="TASK 1" style="rounded=0;whiteSpace=wrap;html=1;fontSize=30;" parent="1" vertex="1">
          <mxGeometry x="700" y="790" width="120" height="60" as="geometry" />
        </mxCell>
        <mxCell id="hrnvlZONvZFOwvji5j6H-16" value="SUPERSTEP 2" style="rounded=0;whiteSpace=wrap;html=1;fontSize=30;" parent="1" vertex="1">
          <mxGeometry x="470" y="860" width="220" height="60" as="geometry" />
        </mxCell>
        <mxCell id="hrnvlZONvZFOwvji5j6H-17" value="STEAL" style="rounded=0;whiteSpace=wrap;html=1;fontSize=30;" parent="1" vertex="1">
          <mxGeometry x="700" y="860" width="120" height="60" as="geometry" />
        </mxCell>
        <mxCell id="hrnvlZONvZFOwvji5j6H-18" value="SUPERSTEP 3" style="rounded=0;whiteSpace=wrap;html=1;fontSize=30;" parent="1" vertex="1">
          <mxGeometry x="470" y="930" width="220" height="60" as="geometry" />
        </mxCell>
        <mxCell id="hrnvlZONvZFOwvji5j6H-19" value="TASK 3" style="rounded=0;whiteSpace=wrap;html=1;fontSize=30;" parent="1" vertex="1">
          <mxGeometry x="700" y="930" width="120" height="60" as="geometry" />
        </mxCell>
        <mxCell id="hrnvlZONvZFOwvji5j6H-20" value="SUPERSTEP 4" style="rounded=0;whiteSpace=wrap;html=1;fontSize=30;" parent="1" vertex="1">
          <mxGeometry x="470" y="1000" width="220" height="60" as="geometry" />
        </mxCell>
        <mxCell id="hrnvlZONvZFOwvji5j6H-21" value="TASK 4" style="rounded=0;whiteSpace=wrap;html=1;fontSize=30;" parent="1" vertex="1">
          <mxGeometry x="700" y="1000" width="120" height="60" as="geometry" />
        </mxCell>
        <mxCell id="hrnvlZONvZFOwvji5j6H-22" value="SUPERSTEP 1" style="rounded=0;whiteSpace=wrap;html=1;fontSize=30;" parent="1" vertex="1">
          <mxGeometry x="1150" y="250" width="220" height="60" as="geometry" />
        </mxCell>
        <mxCell id="hrnvlZONvZFOwvji5j6H-23" value="TASK 1" style="rounded=0;whiteSpace=wrap;html=1;fontSize=30;" parent="1" vertex="1">
          <mxGeometry x="1380" y="250" width="120" height="60" as="geometry" />
        </mxCell>
        <mxCell id="hrnvlZONvZFOwvji5j6H-24" value="SUPERSTEP 2" style="rounded=0;whiteSpace=wrap;html=1;fontSize=30;" parent="1" vertex="1">
          <mxGeometry x="1150" y="320" width="220" height="60" as="geometry" />
        </mxCell>
        <mxCell id="hrnvlZONvZFOwvji5j6H-25" value="TASK 2" style="rounded=0;whiteSpace=wrap;html=1;fontSize=30;" parent="1" vertex="1">
          <mxGeometry x="1380" y="320" width="120" height="60" as="geometry" />
        </mxCell>
        <mxCell id="hrnvlZONvZFOwvji5j6H-26" value="SUPERSTEP 3" style="rounded=0;whiteSpace=wrap;html=1;fontSize=30;" parent="1" vertex="1">
          <mxGeometry x="1150" y="390" width="220" height="60" as="geometry" />
        </mxCell>
        <mxCell id="hrnvlZONvZFOwvji5j6H-27" value="STEAL" style="rounded=0;whiteSpace=wrap;html=1;fontSize=30;" parent="1" vertex="1">
          <mxGeometry x="1380" y="390" width="120" height="60" as="geometry" />
        </mxCell>
        <mxCell id="hrnvlZONvZFOwvji5j6H-28" value="SUPERSTEP 4" style="rounded=0;whiteSpace=wrap;html=1;fontSize=30;" parent="1" vertex="1">
          <mxGeometry x="1150" y="460" width="220" height="60" as="geometry" />
        </mxCell>
        <mxCell id="hrnvlZONvZFOwvji5j6H-29" value="TASK 4" style="rounded=0;whiteSpace=wrap;html=1;fontSize=30;" parent="1" vertex="1">
          <mxGeometry x="1380" y="460" width="120" height="60" as="geometry" />
        </mxCell>
        <mxCell id="hrnvlZONvZFOwvji5j6H-30" value="&lt;font style=&quot;font-size: 30px;&quot;&gt;THREAD 2&lt;/font&gt;" style="rounded=0;whiteSpace=wrap;html=1;" parent="1" vertex="1">
          <mxGeometry x="540" y="610" width="170" height="110" as="geometry" />
        </mxCell>
        <mxCell id="hrnvlZONvZFOwvji5j6H-31" value="&lt;font style=&quot;font-size: 30px;&quot;&gt;THREAD 3&lt;/font&gt;" style="rounded=0;whiteSpace=wrap;html=1;" parent="1" vertex="1">
          <mxGeometry x="915" y="280" width="170" height="110" as="geometry" />
        </mxCell>
        <mxCell id="hrnvlZONvZFOwvji5j6H-32" value="&lt;font style=&quot;font-size: 30px;&quot;&gt;THREAD 4&lt;/font&gt;" style="rounded=0;whiteSpace=wrap;html=1;" parent="1" vertex="1">
          <mxGeometry x="460" y="-110" width="170" height="110" as="geometry" />
        </mxCell>
        <mxCell id="hrnvlZONvZFOwvji5j6H-33" value="SUPERSTEP 1" style="rounded=0;whiteSpace=wrap;html=1;fontSize=30;" parent="1" vertex="1">
          <mxGeometry x="370" y="-440" width="220" height="60" as="geometry" />
        </mxCell>
        <mxCell id="hrnvlZONvZFOwvji5j6H-34" value="TASK 1" style="rounded=0;whiteSpace=wrap;html=1;fontSize=30;" parent="1" vertex="1">
          <mxGeometry x="600" y="-440" width="120" height="60" as="geometry" />
        </mxCell>
        <mxCell id="hrnvlZONvZFOwvji5j6H-35" value="SUPERSTEP 2" style="rounded=0;whiteSpace=wrap;html=1;fontSize=30;" parent="1" vertex="1">
          <mxGeometry x="370" y="-370" width="220" height="60" as="geometry" />
        </mxCell>
        <mxCell id="hrnvlZONvZFOwvji5j6H-36" value="TASK 2" style="rounded=0;whiteSpace=wrap;html=1;fontSize=30;" parent="1" vertex="1">
          <mxGeometry x="600" y="-370" width="120" height="60" as="geometry" />
        </mxCell>
        <mxCell id="hrnvlZONvZFOwvji5j6H-37" value="SUPERSTEP 3" style="rounded=0;whiteSpace=wrap;html=1;fontSize=30;" parent="1" vertex="1">
          <mxGeometry x="370" y="-300" width="220" height="60" as="geometry" />
        </mxCell>
        <mxCell id="hrnvlZONvZFOwvji5j6H-38" value="TASK 3" style="rounded=0;whiteSpace=wrap;html=1;fontSize=30;" parent="1" vertex="1">
          <mxGeometry x="600" y="-300" width="120" height="60" as="geometry" />
        </mxCell>
        <mxCell id="hrnvlZONvZFOwvji5j6H-39" value="SUPERSTEP 4" style="rounded=0;whiteSpace=wrap;html=1;fontSize=30;" parent="1" vertex="1">
          <mxGeometry x="370" y="-230" width="220" height="60" as="geometry" />
        </mxCell>
        <mxCell id="hrnvlZONvZFOwvji5j6H-40" value="STEAL" style="rounded=0;whiteSpace=wrap;html=1;fontSize=30;" parent="1" vertex="1">
          <mxGeometry x="600" y="-230" width="120" height="60" as="geometry" />
        </mxCell>
        <mxCell id="hrnvlZONvZFOwvji5j6H-41" value="&lt;h1&gt;Take superstep events&lt;/h1&gt;&lt;p&gt;&lt;font style=&quot;font-size: 18px;&quot;&gt;Stealing thread moves events into itself, to do later, according to the superstep position.&lt;/font&gt;&lt;/p&gt;" style="text;html=1;strokeColor=none;fillColor=none;spacing=5;spacingTop=-20;whiteSpace=wrap;overflow=hidden;rounded=0;" parent="1" vertex="1">
          <mxGeometry x="570" y="150" width="380" height="120" as="geometry" />
        </mxCell>
        <mxCell id="hrnvlZONvZFOwvji5j6H-43" value="&lt;h1&gt;Every thread&#39;s superstep runs before the next superstep runs&lt;/h1&gt;&lt;p&gt;&lt;font style=&quot;font-size: 21px;&quot;&gt;This is a nonblocking barrier, because the thread can still do work while waiting for other threads to finish their superstep.&lt;/font&gt;&lt;/p&gt;" style="text;html=1;strokeColor=none;fillColor=none;spacing=5;spacingTop=-20;whiteSpace=wrap;overflow=hidden;rounded=0;" parent="1" vertex="1">
          <mxGeometry x="50" y="-590" width="850" height="120" as="geometry" />
        </mxCell>
      </root>
    </mxGraphModel>
  </diagram>
</mxfile>
